<?xml version="1.0" encoding="UTF-8"?>
<!DOCTYPE svg PUBLIC "-//W3C//DTD SVG 1.1//EN" "http://www.w3.org/Graphics/SVG/1.1/DTD/svg11.dtd">
<!-- Creator: CorelDRAW 2021 (64-Bit) -->
<svg xmlns="http://www.w3.org/2000/svg" xml:space="preserve" width="7.6893in" height="2.98006in" version="1.1" style="shape-rendering:geometricPrecision; text-rendering:geometricPrecision; image-rendering:optimizeQuality; fill-rule:evenodd; clip-rule:evenodd"
viewBox="0 0 7567.28 2932.77"
 xmlns:xlink="http://www.w3.org/1999/xlink"
 xmlns:xodm="http://www.corel.com/coreldraw/odm/2003">
 <defs>
  <style type="text/css">
   <![CDATA[
    .fil0 {fill:#9900CC}
   ]]>
  </style>
 </defs>
 <g id="Layer_x0020_1">
  <metadata id="CorelCorpID_0Corel-Layer"/>
  <path class="fil0" d="M4136.63 1950.6c0,73.42 -15.84,140.49 -47.5,201.16 -31.39,60.14 -77.99,112.99 -139.77,158.48l-0.02 -0.03c-60.95,45.01 -132.18,78.57 -213.65,100.71 -80.21,21.8 -170.51,32.67 -270.89,32.67 -56.24,0 -109.84,-2.58 -160.69,-7.7 -51.15,-5.15 -98.23,-12.79 -141.18,-22.88 -41.28,-9.67 -82.25,-21.04 -122.88,-34.03 -41.31,-13.2 -80.33,-27.47 -117.12,-42.72l-28.03 -11.62 0 -398.14 99.16 0 12.45 9.93c33.72,26.89 69.49,50.68 107.28,71.39 38.11,20.89 78.07,38.6 119.82,53.16l0.03 -0.1c42.91,14.75 84.23,25.73 123.95,32.88 39.38,7.09 78.51,10.65 117.39,10.65 10.42,0 21.63,-0.4 33.7,-1.21 13.61,-0.91 28.55,-2.24 44.91,-3.99l0.35 0c14.8,-1.46 28.44,-3.57 40.98,-6.24 12.04,-2.56 22.52,-5.6 31.51,-9.01 9.97,-4.28 19.38,-9.19 28.21,-14.69 8.49,-5.28 15.96,-10.91 22.37,-16.86 3.05,-3.12 5.49,-7.28 7.31,-12.43 2.51,-7.11 3.78,-16.12 3.78,-26.98 0,-7.88 -1.56,-15.03 -4.69,-21.45 -3.53,-7.23 -9.09,-14.14 -16.71,-20.75 -9.2,-7.81 -20.96,-14.92 -35.24,-21.3 -15.34,-6.85 -33.94,-12.87 -55.75,-18.04 -26.61,-6.32 -52.38,-12.16 -77.05,-17.39 -28.04,-5.95 -55.19,-11.39 -81.27,-16.23l-0.18 0c-29.24,-5.46 -57.18,-11.59 -83.76,-18.31 -27.64,-6.99 -54.57,-14.78 -80.68,-23.26l0.02 -0.05c-60.09,-19.5 -111.87,-42.62 -155.41,-69.31 -45.3,-27.78 -82.08,-59.64 -110.4,-95.53 -28.27,-35.81 -49.5,-75.89 -63.65,-120.28 -14.01,-43.93 -21.03,-91.42 -21.03,-142.5 0,-70.36 15.95,-134.55 47.84,-192.6 31.46,-57.27 78.18,-107.76 140.15,-151.51 60.34,-42.6 129.33,-74.53 206.94,-95.8 76.6,-20.98 160.88,-31.47 252.82,-31.47 44.75,0 90.2,2.29 136.34,6.8 46.04,4.51 91,11.1 134.9,19.73l0.17 0c43.09,8.59 84.67,18.67 124.79,30.25l0.17 0c39.07,11.28 75.14,23.71 108.25,37.27l28.21 11.56 0 385.54 -98.05 0 -12.64 -10.12c-24.68,-19.74 -52.59,-38.06 -83.59,-54.93 -31.01,-16.87 -65.39,-32.28 -103.04,-46.21 -37.35,-13.76 -74.58,-24.01 -111.68,-30.71 -36.88,-6.66 -74.77,-10 -113.64,-10 -14.29,0 -27.75,0.41 -40.31,1.25 -13.5,0.9 -26.73,2.26 -39.66,4.08 -12.55,1.76 -24.84,4.19 -36.87,7.36 -11.66,3.07 -23.35,6.96 -35.08,11.74l-0.36 0.18c-9.13,3.61 -17.13,7.74 -24.01,12.39 -7.02,4.76 -13.69,10.53 -20.04,17.33 -4.67,5.01 -8.04,10.1 -10.12,15.25 -1.98,4.91 -2.97,10.45 -2.97,16.59 0,10.67 1.81,19.62 5.41,26.84 3.41,6.83 8.75,12.81 16.03,17.94l-0.03 0.05c10.05,6.88 25.77,13.96 47.19,21.21 23.98,8.11 53.79,15.9 89.51,23.36l-0 0.03c38.64,7.98 65.69,13.68 91.84,19.21l50.87 10.72c24.83,5.24 49.27,11.13 73.35,17.68 23.4,6.36 49.41,14.17 77.98,23.41l0.17 0c54.91,17.92 102.79,39.24 143.64,63.89 42.3,25.53 77.36,54.79 105.21,87.71 28.41,33.59 49.71,72.15 63.86,115.59 13.83,42.5 20.78,89.32 20.78,140.4zm-3829.83 -561.33l154.02 107.55c97.1,67.84 299.39,186.49 410.67,252.2 27.95,16.49 55.41,27.37 84.05,48.27 -14.11,67.08 -48.65,108.58 -33.14,200.05 53.2,313.75 525.23,-12.78 581.78,-277.97 58.46,-274.18 -236.77,-310.93 -451.45,-76.83 -49.17,-25.35 -108.82,-66.46 -160.96,-98.81 -113.92,-70.68 -215.61,-137.39 -339.99,-195.35 -57.04,-26.58 -129.94,-51.14 -186.12,-80.26 4.15,-57.13 0.24,-76.53 -24.37,-123.54 -14.35,-27.42 -50.47,-63.47 -89.11,-76.8 -109,-37.6 -189.13,22.67 -226.49,85.1 -75.15,125.61 25.56,277.15 159.73,278.4 52.15,0.48 85.93,-27.65 121.38,-42.02zm793.11 -623.73c-4.23,85.07 -1,157.37 0.02,241.46 0.66,54.59 -10.56,54.16 -45.31,78.07 -23.79,16.37 -48.41,36.17 -68.41,52.93 -77.65,65.05 -188.78,175.83 -233.8,257.64 14.1,13.74 66.12,43.03 85.74,50.22 41.33,-67.29 111.64,-125.1 166.21,-181.37l96.55 -75.6c222.03,-159.51 744.21,-308.09 880.93,-8.41 235.17,515.48 -394.27,1367.87 -967.1,1421.61 -486.51,45.65 -501.11,-545.35 -322.31,-887.68l-85.53 -48.84c-121.35,251.32 -156.86,543.81 -50.06,806.26 142.52,350.22 571.38,497.18 953.41,427.25 29.23,-5.35 82.11,-22.73 106.18,-21.04l0.48 54.73 926.23 -0.24c23.46,-168.5 -33.38,-137.69 -170.67,-144.02l-46.65 -153.95c-17.57,-52.08 -38.31,-95.31 -54.59,-142.33 78.13,-73.17 176.33,-252.47 208.25,-358.55 93.92,-312.16 33.39,-634.17 -153.42,-889.28 -100.46,-137.19 -86.67,-60.53 -85.96,-199.42 0.39,-77.41 4.53,-208.9 -6.42,-280.52 -77.31,-54.81 -455.37,-114.69 -568.91,-109.83 -162.56,6.96 -434.78,45.56 -564.85,110.91zm-98.01 203.25c18.24,-43.27 3.48,-165.37 8.56,-223.59 4.59,-52.59 61.98,-66.06 135.89,-90.99 246.49,-83.13 566.03,-103.83 823.63,-53.62 97.36,18.98 291.24,60.42 349.06,113.49 6.79,13.94 2.18,229.69 15.82,255.53 17.85,3.28 155.49,-68.65 184.85,-83.02 185.13,-90.58 204.06,-111.19 201.39,-35.43 -0.73,20.81 -0.35,51.67 -1.34,87.58 -0.83,29.75 -3.48,62.13 -0.71,102.94 -22.93,11.31 -47.93,34.55 -51.71,74.58 -4.99,53 26.3,69.68 27.78,94.51 2.53,42.44 -52.62,159.9 -41.88,210.66 28.09,9.14 188.27,8.92 215.36,-0.61 20.34,-52.05 -32.38,-155.37 -40.05,-216.45 18.24,-27.11 38.91,-49.5 31.61,-95.81 -6.54,-41.48 -33.38,-53.5 -54.04,-76.33 1.61,-86.68 -7.97,-202.91 -1.38,-282.52 36.22,-9.91 73.76,-33.44 109.85,-48.74 157.96,-66.91 -58.93,-138.38 -177.55,-192.94 -115.34,-53.05 -1035.04,-524.76 -1095.61,-507.57 -398.85,191.35 -799.36,382.77 -1196.45,577.34 -34.23,16.77 -87.59,34.36 -86.05,71.8 1.49,35.99 619.22,329.13 642.97,319.19zm6476.64 1450.7l23.65 0 65.08 0c-176.83,-479.39 -353.63,-958.8 -530.5,-1438.18l-63.33 0 -26.23 0 -316.31 0 -89.55 0 531.31 1438.18 23.65 0 39.68 0 25.41 0 317.12 0zm-342.53 -68.89c-159.26,-431.76 -318.49,-863.54 -477.79,-1295.29l315.24 0 0 -3.01 477.75 1293.19 -315.19 0 0 5.11zm-2730.61 -1094.85c268.05,-312.88 689.78,-281.77 995.72,-128.27l0 289.75 -23.72 0c-190.7,-213.88 -523.83,-246.41 -690.31,-38.33l-281.69 -123.14zm1345.76 597.85l296.68 -798.3 342.54 0 478.72 1297.83 46.85 20.93 -1164.79 -520.47zm-811.14 593.68c-105.25,0 -202.57,-15.72 -292.59,-47.14 -45.27,-15.8 -87.58,-35.62 -126.89,-59.45 -39.48,-23.92 -75.51,-51.59 -108.12,-83 -32.91,-31.41 -62.25,-67.06 -88.01,-106.91 -25.56,-39.54 -47.2,-82.6 -64.89,-129.1l-0.05 0.02c-17.82,-46.42 -31.18,-96.65 -40.11,-150.65 -8.85,-53.51 -13.25,-109.99 -13.25,-169.43 0,-55.34 4.24,-108.66 12.68,-159.96 8.45,-51.4 21.15,-100.22 38.04,-146.45l0 -0.18c17.13,-46.46 38.18,-89.69 63.09,-129.64 24.97,-40.05 53.93,-76.88 86.82,-110.44 31.63,-32.29 67.16,-61.02 106.57,-86.12 38.92,-24.79 81.45,-45.86 127.54,-63.15l-0.02 -0.06c46.22,-17.43 94.33,-30.48 144.4,-39.14 50.06,-8.65 101.95,-12.99 155.74,-12.99 28.11,0 55.93,0.83 83.47,2.53 26.83,1.66 52.27,4.17 76.25,7.57 24.37,3.34 47.01,7.06 67.84,11.14 21.61,4.22 42.93,9.12 63.82,14.64l1.06 0.36c21.32,6.18 41.33,12.53 60.07,19.09 20.22,7.08 38.62,14.16 55.22,21.3 13.33,5.73 28.69,12.53 47.25,21 14.4,6.56 28.2,13.12 41.54,19.78l25.19 12.59 0 400.07 -101.84 0 -12.87 -11c-8.03,-6.86 -17.26,-14.46 -27.66,-22.78 -11.02,-8.83 -22.49,-17.81 -34.5,-27.08 -12.07,-9.31 -24.92,-18.53 -38.56,-27.64 -13.93,-9.31 -28.54,-18.45 -43.85,-27.41l-0.03 0.05c-14.81,-8.58 -30.54,-16.59 -47.1,-24.04 -16.58,-7.45 -34.19,-14.36 -52.72,-20.74 -17.19,-5.91 -34.56,-10.25 -52.07,-13.05 -17.76,-2.83 -36.81,-4.23 -57.06,-4.23 -22.55,0 -44,1.7 -64.39,5.08 -20.64,3.43 -40.74,8.57 -60.33,15.42l-0.17 0.17c-18.85,6.46 -36.94,15.12 -54.23,25.91 -17.94,11.19 -35.14,24.64 -51.59,40.28 -15.18,14.83 -29.02,32.05 -41.45,51.68 -12.86,20.3 -24.23,43.08 -34.03,68.34 -9.84,25.49 -17.28,53.91 -22.29,85.19 -5.03,31.41 -7.57,66.37 -7.57,104.82 0,40.12 2.78,76.41 8.29,108.92 5.38,31.75 13.4,60.26 24,85.59l-0.09 0.03c10.7,25.4 22.75,48.12 36.18,68.07 12.72,18.9 26.85,35.32 42.4,49.15l0.36 0.36c16.2,14.69 32.99,27.02 50.36,37.02 17.34,10 35.87,18.07 55.55,24.26 20.93,6.55 41.34,11.41 61.17,14.56 19.4,3.08 39.21,4.63 59.4,4.63 19.26,0 38.26,-1.38 56.94,-4.18 19.11,-2.86 37.68,-7.03 55.65,-12.53l0.18 -0.17c19.11,-5.75 37.16,-12.39 54.12,-19.93l0.17 0c16.68,-7.42 33.26,-16.17 49.66,-26.24l0.71 -0.36c13.66,-8.04 27.09,-16.46 40.28,-25.29 12.97,-8.69 25.3,-17.56 36.91,-26.62 11.73,-9.15 23.05,-18.14 34,-27.04 10.02,-8.13 19.01,-15.64 26.92,-22.51l12.87 -11.17 98.31 0 0 396.83 -27.14 11.95 -97.34 42.49 -0.03 -0.08c-16.61,7.21 -33.24,13.75 -49.84,19.62 -17.04,6.02 -34.66,11.6 -52.79,16.7l-0.02 -0.07c-23.6,6.81 -45.25,12.5 -64.98,17.13 -22.06,5.17 -43.17,9.51 -63.29,13.05l-0.35 0c-20.74,3.48 -45.28,6.14 -73.59,7.9 -28.45,1.78 -59.55,2.69 -93.24,2.69zm1975.93 -27.8l-267.91 0 -648.01 -272.43 -93.9 272.43 -448.95 0 530.5 -1438.18 462.86 0c176.88,479.38 353.67,958.78 530.5,1438.18l-65.08 0z"/>
 </g>
</svg>
